<svg version="1.1" id="Layer_1" xmlns="http://www.w3.org/2000/svg" xmlns:xlink="http://www.w3.org/1999/xlink" x="0px" y="0px" width="100%" viewBox="0 0 768 862" enable-background="new 0 0 768 862" xml:space="preserve">

<!-- defining the gradient  -->
<defs>
    <linearGradient id="gradientFill" x1="0%" y1="0%" x2="100%" y2="0%">
      <stop offset="0%" stop-color="green">
        <animate attributeName="offset" from="0%" to="100%" dur="2s" repeatCount="indefinite" />
      </stop>
      <stop offset="100%" stop-color="transparent" />
    </linearGradient>
  </defs>


<path fill="url(#gradientFill)" opacity="1.000000" stroke="none" 
	d="
M1.000000,360.000000 
	C1.000000,240.348969 1.000000,120.697952 1.000000,1.023463 
	C256.950897,1.023463 512.901794,1.023463 768.926331,1.023463 
	C768.926331,288.246643 768.926331,575.493347 768.926331,862.869995 
	C513.120178,862.869995 257.240265,862.869995 1.000000,862.869995 
	C1.000000,713.973328 1.000000,564.946350 1.328635,415.460022 
	C2.092932,415.036072 2.528593,415.071503 2.993473,415.567993 
	C3.035132,425.642029 3.086676,435.255219 3.042833,444.867920 
	C3.022196,449.392548 5.354637,451.844055 9.659658,451.943695 
	C16.775276,452.108368 23.900137,451.873810 31.478121,451.875092 
	C36.694344,451.311462 41.453548,450.680237 46.434662,450.013245 
	C46.951355,449.808197 47.081154,449.554443 47.391068,449.000122 
	C48.306828,444.264191 48.877491,439.744385 49.459839,435.132080 
	C53.628078,435.279724 54.341736,438.594788 54.944534,441.721680 
	C55.528519,444.750946 55.261562,447.982178 56.092991,450.919586 
	C60.453857,466.326294 65.191139,481.627441 69.454262,497.060089 
	C70.536949,500.979492 73.320930,504.528656 69.393280,509.462250 
	C57.659359,524.201355 46.717194,539.579712 35.781448,554.933167 
	C34.532887,556.686096 34.265205,560.412476 35.276840,562.288940 
	C40.889740,572.700195 47.435398,582.618530 52.837288,593.129333 
	C55.538666,598.385559 59.079971,598.422852 63.706875,597.717651 
	C70.284851,596.715027 76.888412,595.877747 83.485641,595.004517 
	C93.153671,593.724854 102.868759,592.732727 112.481133,591.124146 
	C118.941681,590.043030 122.080170,591.027893 126.288330,596.632324 
	C128.384888,599.424561 130.801819,601.195435 134.951538,601.139893 
	C157.113846,600.843201 179.282227,601.000000 201.448517,601.000000 
	C202.944244,601.000000 204.439987,601.000000 207.401459,601.000000 
	C145.352982,550.185669 110.217583,486.195129 104.369995,408.035400 
	C98.461433,329.060791 122.926094,259.222870 177.441452,201.372543 
	C227.686020,148.054276 290.367676,119.484543 363.568024,116.231300 
	C428.924744,113.326675 488.505981,131.892029 540.094788,172.218948 
	C600.449951,219.398499 636.635437,281.258270 644.331238,358.050262 
	C654.190308,456.429077 618.417542,536.545471 542.990295,601.000000 
	C545.659668,601.000000 547.086426,601.000000 548.513184,601.000000 
	C570.846130,601.000000 593.179626,600.923706 615.511475,601.077637 
	C619.094666,601.102356 621.140381,599.771423 623.121643,596.939819 
	C624.751099,594.610962 627.060486,592.003296 629.582703,591.257324 
	C632.327515,590.445435 635.666077,591.633789 638.744812,591.959167 
	C648.315491,592.970459 657.893677,593.917480 667.453369,595.023560 
	C674.070557,595.789246 680.686646,596.628479 687.255493,597.721741 
	C691.071167,598.356812 694.054688,598.319946 696.280090,594.328857 
	C702.528809,583.122131 709.164490,572.131165 715.417603,560.926819 
	C716.132507,559.645752 715.949097,557.247314 715.212830,555.894714 
	C713.426819,552.613770 711.160767,549.576050 708.925964,546.560547 
	C699.134521,533.348022 689.230164,520.218445 679.546448,506.927856 
	C678.624756,505.662842 678.340393,503.303375 678.802124,501.764679 
	C681.466309,492.886536 684.788818,484.196381 687.222351,475.261169 
	C689.872864,465.528931 691.594971,455.546295 694.133423,445.779846 
	C695.211487,441.632172 694.081177,436.165131 700.628845,434.612183 
	C704.706848,433.644958 708.365051,431.002197 712.298706,429.314453 
	C725.527527,423.638550 738.734314,417.901581 752.086853,412.529572 
	C755.933716,410.981903 757.050537,408.596619 757.027405,404.860992 
	C756.953125,392.861664 756.870117,380.859283 757.082764,368.863251 
	C757.142334,365.498871 755.843567,363.675812 752.983459,362.452881 
	C736.285706,355.313477 719.640503,348.048950 702.883545,341.051849 
	C697.942505,338.988647 695.794189,336.569427 694.560303,330.523987 
	C690.948608,312.828827 685.766113,295.409485 680.335205,278.153992 
	C678.347656,271.839172 678.134644,267.239380 682.858765,262.175934 
	C687.655151,257.035095 691.626404,251.112564 695.845276,245.447647 
	C702.146912,236.986084 708.494690,228.550339 714.460327,219.854935 
	C715.545776,218.272842 715.794373,215.019974 714.902893,213.356369 
	C709.158142,202.636078 702.692749,192.297211 697.086182,181.509720 
	C694.338684,176.223419 690.147949,176.634430 685.835693,177.099945 
	C675.484802,178.217377 665.168213,179.657608 654.843079,181.007492 
	C648.079285,181.891739 641.343872,183.068573 634.556030,183.653046 
	C632.025513,183.870956 628.766479,183.560532 626.924622,182.111664 
	C623.582581,179.482727 621.214417,175.658463 618.156433,172.618103 
	C606.820312,161.347290 595.483887,150.070908 583.878479,139.080795 
	C581.009399,136.363815 578.366211,134.242599 578.940613,129.735458 
	C580.137085,120.347290 580.954041,110.911423 582.014038,101.504974 
	C582.925598,93.415901 584.228699,85.359741 584.806824,77.249687 
	C585.044983,73.908417 585.031311,68.627197 583.093750,67.370110 
	C571.956116,60.143848 560.187256,53.894180 548.681213,47.229187 
	C546.229248,45.808872 544.324585,45.808456 542.199768,47.917110 
	C540.593872,49.510754 538.465515,50.568546 536.614807,51.926277 
	C522.803833,62.058128 509.047485,72.265656 495.133453,82.253601 
	C493.754730,83.243286 491.253265,83.560402 489.585358,83.087585 
	C484.695038,81.701279 480.070282,79.316017 475.147919,78.116760 
	C460.467926,74.540215 445.717163,71.241997 430.944458,68.065788 
	C426.974060,67.212120 423.934937,66.002716 422.271362,61.824341 
	C418.968445,53.528698 415.228210,45.406960 411.658600,37.217747 
	C407.440155,27.539944 403.253510,17.847673 398.920105,8.221513 
	C398.491394,7.269191 397.202942,6.222671 396.200836,6.093396 
	C391.976501,5.548463 387.705231,5.010215 383.458862,5.065456 
	C373.704468,5.192352 363.951050,5.598839 354.207703,6.095972 
	C353.106659,6.152149 351.538879,7.281001 351.086334,8.308363 
	C342.971954,26.728703 335.027832,45.223995 326.924896,63.649429 
	C326.342407,64.973892 324.986420,66.538849 323.700684,66.870667 
	C318.719513,68.156204 313.554688,68.734032 308.579132,70.036865 
	C294.791260,73.647179 281.099823,77.628937 267.291901,81.157234 
	C262.959778,82.264198 258.882477,85.903542 253.803177,82.058334 
	C238.282135,70.308372 222.547592,58.838821 206.793472,47.401550 
	C205.600922,46.535770 203.157028,46.001781 202.043594,46.633442 
	C190.455902,53.207333 178.952789,59.940254 167.619736,66.942284 
	C165.933151,67.984314 164.120850,70.750450 164.286148,72.541855 
	C165.194061,82.381012 166.696030,92.165497 168.001053,101.967819 
	C168.987946,109.380516 170.606461,116.781029 170.735626,124.207977 
	C170.808426,128.392899 173.619675,132.873352 168.104950,137.237488 
	C151.458359,150.410965 136.544922,165.517838 123.244560,182.147064 
	C122.514282,183.060135 121.014374,183.988312 119.953094,183.903503 
	C113.131889,183.358414 106.330872,182.552719 99.527679,181.792709 
	C93.858337,181.159363 88.193909,180.481384 82.529427,179.805328 
	C74.768280,178.879044 67.023712,177.743088 59.237461,177.154099 
	C57.575882,177.028381 55.013962,178.413544 54.144150,179.867020 
	C47.576530,190.841949 41.236801,201.957764 35.083069,213.170715 
	C34.214302,214.753738 33.892490,217.645264 34.764027,219.001755 
	C38.684753,225.104050 43.031723,230.943115 47.402664,236.743195 
	C55.101631,246.959442 62.978832,257.041687 70.634995,267.289459 
	C71.473686,268.412018 71.977768,270.445007 71.578972,271.726440 
	C68.583992,281.349762 64.997910,290.797821 62.242016,300.484283 
	C59.738838,309.282562 58.112732,318.327576 55.973251,327.233337 
	C54.866581,331.839905 55.849213,337.509399 50.110081,339.964905 
	C36.461948,345.804260 22.809652,351.634644 9.119675,357.374756 
	C6.505758,358.470795 3.711211,359.136017 1.000000,360.000000 
M368.011230,851.731689 
	C369.560150,855.660339 373.086304,855.926147 376.451904,855.936768 
	C400.568237,856.013000 424.684937,855.986633 448.801483,855.955872 
	C453.967560,855.949280 456.902618,853.031677 456.943939,847.831360 
	C457.008698,839.682495 457.178436,831.522888 456.817780,823.389404 
	C456.708313,820.920898 454.995422,818.523499 453.636017,815.916687 
	C453.636017,815.916687 453.217194,815.947998 452.767395,815.252747 
	C450.594574,814.835144 448.349609,813.846680 446.262878,814.110474 
	C440.726532,814.810181 437.544220,812.442444 435.146362,807.664307 
	C429.929199,797.268188 424.262054,787.098328 419.019562,776.714417 
	C415.417236,769.579224 411.751068,762.266052 418.080261,754.614014 
	C419.637238,752.731628 421.147888,750.808716 422.625946,748.863525 
	C429.403290,739.944580 434.982086,730.393066 435.936188,718.979065 
	C437.096802,705.094360 434.549866,692.302979 425.122925,681.148560 
	C416.260925,670.662598 405.321136,663.615356 391.901123,663.247986 
	C362.610382,662.446045 333.282532,662.977112 303.969910,663.024719 
	C299.564728,663.031860 298.102661,665.374268 299.805878,669.371826 
	C304.057190,679.349670 305.790802,689.914795 305.900940,700.594788 
	C306.192902,728.905090 305.990051,757.220520 306.004547,785.533875 
	C306.010986,798.127441 304.646027,810.439819 299.424133,822.117981 
	C297.558563,826.290161 299.261871,828.939453 303.663940,828.964172 
	C319.652161,829.053894 335.641876,829.082214 351.629486,828.948608 
	C356.393097,828.908875 357.442200,826.961792 356.115326,822.430176 
	C354.317261,816.289307 351.630920,810.164856 351.228760,803.910889 
	C350.450165,791.802856 350.911591,779.607788 351.118134,767.453247 
	C351.142822,766.000244 352.447968,763.825562 353.723053,763.263611 
	C359.865417,760.556213 367.448425,763.952820 369.986481,770.178101 
	C370.710236,771.953308 371.289703,773.802124 372.165375,775.498352 
	C378.507568,787.783630 384.869843,800.053833 387.676331,814.000000 
	C383.403839,814.000000 379.399261,813.819763 375.425201,814.089111 
	C373.841614,814.196411 372.325439,815.297791 370.352661,815.910461 
	C370.352661,815.910461 369.965210,816.090881 369.440613,816.067444 
	C369.324036,816.365845 369.207489,816.664185 368.910736,817.350037 
	C368.910736,817.350037 368.950470,817.775391 368.224731,818.293884 
	C368.204376,829.188904 368.184052,840.083923 368.011230,851.731689 
M312.500000,604.000000 
	C279.738892,604.000000 246.977753,604.000000 213.618622,604.000000 
	C213.618622,618.591736 213.618622,632.612305 213.618622,647.000000 
	C216.095474,647.000000 218.895554,646.952637 221.693619,647.007812 
	C237.778809,647.325134 253.862732,647.864075 269.948669,647.929321 
	C280.365692,647.971619 290.787079,647.007874 301.203796,647.057861 
	C340.787842,647.247681 380.370392,647.751953 419.954376,647.970764 
	C447.451813,648.122803 474.951355,647.908142 502.448364,648.094360 
	C506.816162,648.123901 508.125244,646.940735 508.118225,642.499451 
	C508.099945,630.931702 508.808136,619.363342 508.826447,607.794556 
	C508.828857,606.282471 506.707733,603.831421 505.178009,603.468567 
	C502.791107,602.902405 500.068787,603.966614 497.488342,603.968384 
	C436.158905,604.009033 374.829468,604.000000 312.500000,604.000000 
M471.996429,722.553589 
	C471.636719,725.120361 471.618317,727.793030 470.859741,730.235962 
	C467.023102,742.591492 468.602844,754.883423 471.566406,766.992310 
	C475.640900,783.640503 484.195892,797.648071 496.745422,809.578613 
	C511.217773,823.337158 528.481628,830.728699 547.804077,832.800232 
	C567.016602,834.859985 585.391907,831.059387 601.039429,818.874329 
	C606.016418,814.998718 610.551941,810.196777 614.153809,805.027344 
	C617.080750,800.826538 615.025940,796.542725 609.833435,792.351990 
	C606.861328,789.953247 603.735657,788.298157 600.045044,790.999573 
	C595.576477,794.270447 591.141907,797.588196 586.650574,800.827393 
	C576.207336,808.359375 564.364441,811.661804 552.243591,807.461243 
	C533.369324,800.920166 524.104126,785.471619 520.204285,766.852905 
	C518.636963,759.370239 519.395020,751.410156 518.987732,743.673035 
	C518.031006,725.495728 523.039856,709.056396 534.117920,694.740356 
	C541.383606,685.351074 552.623901,681.001038 565.033752,683.506226 
	C575.934326,685.706787 584.745728,691.899963 593.114258,698.720032 
	C597.954041,702.664307 602.346558,707.157288 608.128174,712.501160 
	C608.963989,708.975342 609.830994,706.802551 609.905640,704.602844 
	C609.986938,702.205994 609.133057,699.792358 609.034851,697.371948 
	C608.619324,687.126892 608.373840,676.874878 607.944031,666.630554 
	C607.894653,665.454102 607.370911,663.754517 606.533875,663.316589 
	C605.790222,662.927429 604.032104,663.650146 603.192261,664.405334 
	C597.533630,669.494019 591.089050,668.684753 584.667175,666.823059 
	C576.529053,664.463928 568.591553,661.369507 560.391479,659.284912 
	C555.856812,658.132141 550.891907,657.714539 546.248413,658.195496 
	C540.710693,658.769104 535.368225,661.036499 529.836548,661.899475 
	C519.054749,663.581482 510.208313,669.500000 502.220581,675.899353 
	C487.424561,687.752930 477.304230,703.280823 471.996429,722.553589 
M530.372009,337.960510 
	C532.785156,335.459717 533.047729,330.550873 538.099060,331.004456 
	C545.427673,331.662445 552.772583,332.207184 560.060303,333.177582 
	C561.178101,333.326416 562.857422,335.501129 562.851501,336.732025 
	C562.829590,341.300995 562.366699,345.886871 561.787598,350.430481 
	C560.270996,362.328308 558.588806,374.204926 557.027527,386.097198 
	C556.878784,387.230072 556.744507,388.610840 557.238098,389.539154 
	C559.313354,393.442749 561.629822,397.218170 564.197083,401.622223 
	C565.265381,399.904480 566.451172,398.693207 566.838013,397.265503 
	C569.854492,386.133026 572.659180,374.943359 575.640625,363.801178 
	C580.525085,345.546539 585.539734,327.326477 590.315125,309.043671 
	C590.609619,307.915894 589.556824,305.392151 588.693237,305.162231 
	C575.355103,301.611786 561.883301,298.555084 548.582764,294.876434 
	C543.729736,293.534149 538.895935,292.084351 536.699768,285.891693 
	C535.039246,281.209381 531.301575,276.916687 527.601318,273.378113 
	C520.264221,266.361572 511.483063,261.887451 501.105011,260.856812 
	C499.419586,260.689392 497.296448,259.181335 496.407898,257.681458 
	C491.104767,248.729630 486.027069,239.640625 481.043488,230.505035 
	C479.237885,227.195099 478.052063,227.363403 475.237671,230.087357 
	C470.165466,234.996628 464.984314,239.992477 459.113434,243.826324 
	C451.978485,248.485657 444.027771,251.802933 434.440857,250.963928 
	C435.181000,253.304352 435.410828,255.137024 436.278687,256.588165 
	C440.558411,263.744324 445.263489,270.657776 449.291595,277.948029 
	C451.409027,281.780212 454.282257,285.316559 452.157898,290.833160 
	C446.099274,306.566284 448.011597,321.522400 458.527344,335.093994 
	C459.357971,336.165985 460.149506,337.934387 459.858704,339.105927 
	C457.003479,350.607697 453.919403,362.052734 450.890198,373.511200 
	C449.475800,378.861328 448.039307,384.205566 446.699585,389.227356 
	C459.930084,392.957001 472.348297,396.513580 484.799988,399.948792 
	C493.610779,402.379486 502.486664,404.574310 511.297241,407.005707 
	C520.336426,409.500244 529.324036,412.181030 538.358398,414.693512 
	C539.180359,414.922150 540.435364,414.822113 541.022888,414.324371 
	C541.625122,413.814117 542.168823,412.140991 541.856323,411.810425 
	C537.736389,407.451630 536.543640,400.898315 529.948303,398.247162 
	C515.885315,392.594116 502.289825,385.765411 488.168579,380.278564 
	C484.206665,378.739166 485.244629,377.100708 486.084473,375.091492 
	C488.918549,368.311432 491.978363,361.623322 495.090912,354.965057 
	C495.487793,354.115997 496.623810,353.287964 497.560303,353.073151 
	C501.159668,352.247559 504.793701,351.471283 508.457703,351.049164 
	C517.577576,349.998474 523.688721,344.205658 530.372009,337.960510 
M425.970398,458.748749 
	C420.707611,451.728210 416.211792,443.919250 409.999054,437.875183 
	C401.075287,429.193695 390.141602,422.542267 377.740906,420.635162 
	C367.518951,419.063141 356.833679,419.303589 346.475952,420.182098 
	C337.707306,420.925842 329.778412,425.067719 322.184235,429.881836 
	C300.409393,443.685303 289.782959,463.839050 288.210785,488.937836 
	C287.805969,495.400604 290.101868,502.011932 290.971558,508.579559 
	C292.774567,522.195496 300.227661,533.138428 309.351196,542.325378 
	C317.092285,550.120300 326.354767,556.581970 337.456238,560.012573 
	C350.371643,564.003601 363.352722,563.893982 376.330444,562.039124 
	C385.618225,560.711670 393.941559,556.409729 401.682068,550.848145 
	C413.740509,542.184143 422.495758,531.213318 428.249084,517.504883 
	C432.481079,507.421234 433.252472,497.067017 433.058533,486.378845 
	C432.884735,476.799377 430.131805,468.012939 425.970398,458.748749 
M226.974884,822.905090 
	C222.180817,811.910828 219.946671,800.423218 219.976334,788.423950 
	C220.048828,759.094421 219.921967,729.764160 220.074036,700.435242 
	C220.100510,695.332764 221.097839,690.235352 221.801697,683.695862 
	C230.854889,685.238892 239.165436,685.925110 247.027100,688.177856 
	C257.104614,691.065552 264.072662,698.581299 270.294250,706.738098 
	C271.204773,707.931946 272.836700,708.575562 274.134827,709.473755 
	C274.530579,709.158875 274.926331,708.844055 275.322083,708.529175 
	C274.542053,698.391602 274.158478,688.201294 272.819550,678.138062 
	C272.120178,672.881592 269.383057,668.028625 263.333496,666.816162 
	C256.223541,665.391174 249.070435,663.287231 241.908981,663.172974 
	C214.919220,662.742188 187.917068,662.847656 160.922638,663.092224 
	C152.756424,663.166260 144.534409,663.910950 136.460907,665.149780 
	C130.397552,666.080200 125.169731,669.779175 124.193298,676.080322 
	C122.525078,686.845703 121.960800,697.782104 120.932846,708.646667 
	C121.281693,708.961853 121.630539,709.277100 121.979378,709.592285 
	C123.391823,708.526184 125.161453,707.721375 126.161697,706.353821 
	C136.590317,692.095093 150.473404,684.796265 168.224350,684.987854 
	C175.181290,685.062988 175.998306,685.831116 175.998871,692.973572 
	C176.001450,726.136108 175.826950,759.300110 176.101257,792.460388 
	C176.188034,802.950867 173.115540,812.573914 169.901184,822.227417 
	C168.233902,827.234741 168.925613,828.952820 174.088013,828.974915 
	C190.085739,829.043335 206.084015,828.971680 222.081879,829.021179 
	C225.743729,829.032532 227.646591,827.659973 226.974884,822.905090 
M245.469070,273.980591 
	C262.345337,288.823975 269.464325,308.284058 270.754852,331.195862 
	C273.678528,328.727783 275.168518,327.185974 276.917908,326.040253 
	C286.849335,319.535889 296.879700,313.182556 306.806488,306.671295 
	C322.464996,296.400513 338.046448,286.012329 353.700928,275.735321 
	C368.102539,266.280853 382.455841,256.745056 397.056824,247.606873 
	C400.956268,245.166367 400.461975,244.100952 397.285004,241.701920 
	C384.650848,232.161362 374.940399,220.646317 372.962219,204.150558 
	C372.558746,200.786331 371.976013,197.443604 371.291534,192.854630 
	C324.790283,216.440582 278.641602,239.847717 231.944977,263.532776 
	C237.011780,267.393066 240.992950,270.426239 245.469070,273.980591 
M348.501526,410.000000 
	C349.622955,409.926788 350.744415,409.853607 352.707733,409.725464 
	C351.666412,408.048248 351.187500,406.612030 350.198639,405.787292 
	C340.683197,397.852051 331.059143,390.047272 321.510956,382.151062 
	C309.972076,372.608643 298.458282,363.035645 286.971130,353.431000 
	C282.168427,349.415405 277.440765,345.308990 272.721771,341.194733 
	C270.540771,339.293213 268.397675,339.409210 268.123535,342.337646 
	C267.317505,350.948029 263.480255,358.299316 259.116669,365.395264 
	C248.419586,382.790680 233.391937,394.269928 212.994293,397.947693 
	C209.553146,398.568146 209.195419,400.660950 210.571075,402.811981 
	C212.459686,405.765106 215.092850,408.242065 217.407394,410.922668 
	C225.783249,420.623138 234.292877,430.212006 242.502869,440.050873 
	C253.780777,453.566406 264.806183,467.292480 276.041748,480.843781 
	C276.739075,481.684875 278.324402,481.789642 279.055115,482.068512 
	C280.114197,477.635040 281.109802,473.742889 281.968872,469.820862 
	C284.956177,456.182068 291.700439,444.488861 301.152527,434.470428 
	C313.790344,421.075409 329.849426,413.798492 348.501526,410.000000 
M211.969116,266.018341 
	C200.066269,264.605560 188.319153,264.373749 176.758163,268.608490 
	C156.728241,275.945435 143.663986,289.892334 137.545349,310.070770 
	C131.239349,330.867004 134.786636,350.333923 148.743866,367.024780 
	C161.213135,381.936279 177.048050,390.247925 197.334244,390.240753 
	C213.123138,390.235199 227.101196,385.937286 238.475922,375.689087 
	C254.389389,361.351746 262.700653,343.314148 260.029938,321.206146 
	C257.678680,301.743042 248.563492,286.384827 232.136032,275.783539 
	C226.141602,271.915100 219.271500,269.403534 211.969116,266.018341 
M323.791840,564.973511 
	C310.098022,557.205444 298.703033,546.895020 289.820221,532.428894 
	C279.687286,554.042358 269.478699,573.892822 260.268463,594.379517 
	C261.768036,594.873169 261.924255,594.969604 262.080505,594.969666 
	C327.020996,594.984131 391.961487,594.999390 456.901947,594.951233 
	C458.313446,594.950195 459.724426,594.222229 461.315308,593.783875 
	C456.316803,583.315674 451.656555,573.529480 446.972809,563.754456 
	C442.611328,554.652100 438.209076,545.569275 433.858124,536.461853 
	C432.361176,533.328430 431.248291,533.234070 429.092590,536.230896 
	C425.738831,540.893311 422.022980,545.346680 418.067230,549.515320 
	C404.646149,563.658630 387.713867,570.981445 368.651398,572.846924 
	C353.409393,574.338562 338.467499,572.078125 323.791840,564.973511 
M384.463928,176.028519 
	C383.818817,177.994110 383.136932,179.948486 382.534546,181.927094 
	C378.540375,195.046783 381.462799,207.632202 387.818665,218.846298 
	C392.318390,226.785507 399.871918,232.561432 408.269806,237.303162 
	C418.953461,243.335510 430.013824,242.822617 441.065094,241.236511 
	C452.003784,239.666580 460.823090,233.276047 467.687164,224.703583 
	C473.783752,217.089600 478.112946,208.398834 478.910553,198.547211 
	C479.818695,187.330597 477.490540,176.791336 471.076508,167.204895 
	C464.401489,157.228348 455.580627,150.391464 444.090790,146.978775 
	C432.481567,143.530624 421.062408,143.840317 410.011719,149.041443 
	C398.279724,154.563202 389.554260,163.035889 384.463928,176.028519 
z"/>
<path fill="url(gradientFill)" opacity="1.000000" stroke="none" 
	d="
M2.964251,415.106934 
	C2.528593,415.071503 2.092932,415.036072 1.328635,415.000305 
	C1.000000,396.979095 1.000000,378.958221 1.000000,360.468658 
	C3.711211,359.136017 6.505758,358.470795 9.119675,357.374756 
	C22.809652,351.634644 36.461948,345.804260 50.110081,339.964905 
	C55.849213,337.509399 54.866581,331.839905 55.973251,327.233337 
	C58.112732,318.327576 59.738838,309.282562 62.242016,300.484283 
	C64.997910,290.797821 68.583992,281.349762 71.578972,271.726440 
	C71.977768,270.445007 71.473686,268.412018 70.634995,267.289459 
	C62.978832,257.041687 55.101631,246.959442 47.402664,236.743195 
	C43.031723,230.943115 38.684753,225.104050 34.764027,219.001755 
	C33.892490,217.645264 34.214302,214.753738 35.083069,213.170715 
	C41.236801,201.957764 47.576530,190.841949 54.144150,179.867020 
	C55.013962,178.413544 57.575882,177.028381 59.237461,177.154099 
	C67.023712,177.743088 74.768280,178.879044 82.529427,179.805328 
	C88.193909,180.481384 93.858337,181.159363 99.527679,181.792709 
	C106.330872,182.552719 113.131889,183.358414 119.953094,183.903503 
	C121.014374,183.988312 122.514282,183.060135 123.244560,182.147064 
	C136.544922,165.517838 151.458359,150.410965 168.104950,137.237488 
	C173.619675,132.873352 170.808426,128.392899 170.735626,124.207977 
	C170.606461,116.781029 168.987946,109.380516 168.001053,101.967819 
	C166.696030,92.165497 165.194061,82.381012 164.286148,72.541855 
	C164.120850,70.750450 165.933151,67.984314 167.619736,66.942284 
	C178.952789,59.940254 190.455902,53.207333 202.043594,46.633442 
	C203.157028,46.001781 205.600922,46.535770 206.793472,47.401550 
	C222.547592,58.838821 238.282135,70.308372 253.803177,82.058334 
	C258.882477,85.903542 262.959778,82.264198 267.291901,81.157234 
	C281.099823,77.628937 294.791260,73.647179 308.579132,70.036865 
	C313.554688,68.734032 318.719513,68.156204 323.700684,66.870667 
	C324.986420,66.538849 326.342407,64.973892 326.924896,63.649429 
	C335.027832,45.223995 342.971954,26.728703 351.086334,8.308363 
	C351.538879,7.281001 353.106659,6.152149 354.207703,6.095972 
	C363.951050,5.598839 373.704468,5.192352 383.458862,5.065456 
	C387.705231,5.010215 391.976501,5.548463 396.200836,6.093396 
	C397.202942,6.222671 398.491394,7.269191 398.920105,8.221513 
	C403.253510,17.847673 407.440155,27.539944 411.658600,37.217747 
	C415.228210,45.406960 418.968445,53.528698 422.271362,61.824341 
	C423.934937,66.002716 426.974060,67.212120 430.944458,68.065788 
	C445.717163,71.241997 460.467926,74.540215 475.147919,78.116760 
	C480.070282,79.316017 484.695038,81.701279 489.585358,83.087585 
	C491.253265,83.560402 493.754730,83.243286 495.133453,82.253601 
	C509.047485,72.265656 522.803833,62.058128 536.614807,51.926277 
	C538.465515,50.568546 540.593872,49.510754 542.199768,47.917110 
	C544.324585,45.808456 546.229248,45.808872 548.681213,47.229187 
	C560.187256,53.894180 571.956116,60.143848 583.093750,67.370110 
	C585.031311,68.627197 585.044983,73.908417 584.806824,77.249687 
	C584.228699,85.359741 582.925598,93.415901 582.014038,101.504974 
	C580.954041,110.911423 580.137085,120.347290 578.940613,129.735458 
	C578.366211,134.242599 581.009399,136.363815 583.878479,139.080795 
	C595.483887,150.070908 606.820312,161.347290 618.156433,172.618103 
	C621.214417,175.658463 623.582581,179.482727 626.924622,182.111664 
	C628.766479,183.560532 632.025513,183.870956 634.556030,183.653046 
	C641.343872,183.068573 648.079285,181.891739 654.843079,181.007492 
	C665.168213,179.657608 675.484802,178.217377 685.835693,177.099945 
	C690.147949,176.634430 694.338684,176.223419 697.086182,181.509720 
	C702.692749,192.297211 709.158142,202.636078 714.902893,213.356369 
	C715.794373,215.019974 715.545776,218.272842 714.460327,219.854935 
	C708.494690,228.550339 702.146912,236.986084 695.845276,245.447647 
	C691.626404,251.112564 687.655151,257.035095 682.858765,262.175934 
	C678.134644,267.239380 678.347656,271.839172 680.335205,278.153992 
	C685.766113,295.409485 690.948608,312.828827 694.560303,330.523987 
	C695.794189,336.569427 697.942505,338.988647 702.883545,341.051849 
	C719.640503,348.048950 736.285706,355.313477 752.983459,362.452881 
	C755.843567,363.675812 757.142334,365.498871 757.082764,368.863251 
	C756.870117,380.859283 756.953125,392.861664 757.027405,404.860992 
	C757.050537,408.596619 755.933716,410.981903 752.086853,412.529572 
	C738.734314,417.901581 725.527527,423.638550 712.298706,429.314453 
	C708.365051,431.002197 704.706848,433.644958 700.628845,434.612183 
	C694.081177,436.165131 695.211487,441.632172 694.133423,445.779846 
	C691.594971,455.546295 689.872864,465.528931 687.222351,475.261169 
	C684.788818,484.196381 681.466309,492.886536 678.802124,501.764679 
	C678.340393,503.303375 678.624756,505.662842 679.546448,506.927856 
	C689.230164,520.218445 699.134521,533.348022 708.925964,546.560547 
	C711.160767,549.576050 713.426819,552.613770 715.212830,555.894714 
	C715.949097,557.247314 716.132507,559.645752 715.417603,560.926819 
	C709.164490,572.131165 702.528809,583.122131 696.280090,594.328857 
	C694.054688,598.319946 691.071167,598.356812 687.255493,597.721741 
	C680.686646,596.628479 674.070557,595.789246 667.453369,595.023560 
	C657.893677,593.917480 648.315491,592.970459 638.744812,591.959167 
	C635.666077,591.633789 632.327515,590.445435 629.582703,591.257324 
	C627.060486,592.003296 624.751099,594.610962 623.121643,596.939819 
	C621.140381,599.771423 619.094666,601.102356 615.511475,601.077637 
	C593.179626,600.923706 570.846130,601.000000 548.513184,601.000000 
	C547.086426,601.000000 545.659668,601.000000 542.990295,601.000000 
	C618.417542,536.545471 654.190308,456.429077 644.331238,358.050262 
	C636.635437,281.258270 600.449951,219.398499 540.094788,172.218948 
	C488.505981,131.892029 428.924744,113.326675 363.568024,116.231300 
	C290.367676,119.484543 227.686020,148.054276 177.441452,201.372543 
	C122.926094,259.222870 98.461433,329.060791 104.369995,408.035400 
	C110.217583,486.195129 145.352982,550.185669 207.401459,601.000000 
	C204.439987,601.000000 202.944244,601.000000 201.448517,601.000000 
	C179.282227,601.000000 157.113846,600.843201 134.951538,601.139893 
	C130.801819,601.195435 128.384888,599.424561 126.288330,596.632324 
	C122.080170,591.027893 118.941681,590.043030 112.481133,591.124146 
	C102.868759,592.732727 93.153671,593.724854 83.485641,595.004517 
	C76.888412,595.877747 70.284851,596.715027 63.706875,597.717651 
	C59.079971,598.422852 55.538666,598.385559 52.837288,593.129333 
	C47.435398,582.618530 40.889740,572.700195 35.276840,562.288940 
	C34.265205,560.412476 34.532887,556.686096 35.781448,554.933167 
	C46.717194,539.579712 57.659359,524.201355 69.393280,509.462250 
	C73.320930,504.528656 70.536949,500.979492 69.454262,497.060089 
	C65.191139,481.627441 60.453857,466.326294 56.092991,450.919586 
	C55.261562,447.982178 55.528519,444.750946 54.944534,441.721680 
	C54.341736,438.594788 53.628078,435.279724 49.459839,435.132080 
	C48.877491,439.744385 48.306828,444.264191 47.317291,448.523865 
	C46.992496,443.183868 47.086575,438.104004 47.445854,432.709595 
	C47.806740,427.438446 47.874546,422.481110 48.006241,417.525421 
	C48.128860,412.910950 45.866539,410.937927 41.325878,410.974976 
	C31.058630,411.058777 20.786234,410.854523 10.525903,411.133789 
	C8.632858,411.185333 6.786718,412.960114 4.619754,413.985901 
	C3.868468,414.390472 3.416358,414.748688 2.964251,415.106934 
z"/>
<path fill="url(gradientFill)" opacity="1.000000" stroke="none" 
	d="
M370.778564,815.946655 
	C372.325439,815.297791 373.841614,814.196411 375.425201,814.089111 
	C379.399261,813.819763 383.403839,814.000000 387.676331,814.000000 
	C384.869843,800.053833 378.507568,787.783630 372.165375,775.498352 
	C371.289703,773.802124 370.710236,771.953308 369.986481,770.178101 
	C367.448425,763.952820 359.865417,760.556213 353.723053,763.263611 
	C352.447968,763.825562 351.142822,766.000244 351.118134,767.453247 
	C350.911591,779.607788 350.450165,791.802856 351.228760,803.910889 
	C351.630920,810.164856 354.317261,816.289307 356.115326,822.430176 
	C357.442200,826.961792 356.393097,828.908875 351.629486,828.948608 
	C335.641876,829.082214 319.652161,829.053894 303.663940,828.964172 
	C299.261871,828.939453 297.558563,826.290161 299.424133,822.117981 
	C304.646027,810.439819 306.010986,798.127441 306.004547,785.533875 
	C305.990051,757.220520 306.192902,728.905090 305.900940,700.594788 
	C305.790802,689.914795 304.057190,679.349670 299.805878,669.371826 
	C298.102661,665.374268 299.564728,663.031860 303.969910,663.024719 
	C333.282532,662.977112 362.610382,662.446045 391.901123,663.247986 
	C405.321136,663.615356 416.260925,670.662598 425.122925,681.148560 
	C434.549866,692.302979 437.096802,705.094360 435.936188,718.979065 
	C434.982086,730.393066 429.403290,739.944580 422.625946,748.863525 
	C421.147888,750.808716 419.637238,752.731628 418.080261,754.614014 
	C411.751068,762.266052 415.417236,769.579224 419.019562,776.714417 
	C424.262054,787.098328 429.929199,797.268188 435.146362,807.664307 
	C437.544220,812.442444 440.726532,814.810181 446.262878,814.110474 
	C448.349609,813.846680 450.594574,814.835144 452.523132,815.654114 
	C448.859741,816.071167 445.440643,816.086792 441.597778,816.053589 
	C438.907837,815.669861 436.643494,815.059998 434.375214,815.045105 
	C420.655121,814.954590 406.933838,814.961609 393.213684,815.048096 
	C391.470917,815.059082 389.732330,815.723999 387.524963,816.059814 
	C381.631592,816.004639 376.205078,815.975647 370.778564,815.946655 
M376.759949,686.232300 
	C370.559723,685.821533 364.364502,685.279480 358.157654,685.042358 
	C353.380371,684.859924 351.073364,686.954407 351.039032,691.586609 
	C350.933197,705.881714 350.884308,720.179688 351.074310,734.473083 
	C351.128571,738.553406 353.388092,741.146851 357.953400,741.021484 
	C361.773865,740.916565 365.614563,740.783569 369.419373,741.048950 
	C375.661407,741.484314 379.262085,738.024170 382.331879,733.244812 
	C386.888428,726.150635 387.157928,718.355530 387.108032,710.260864 
	C387.050537,700.939941 384.000397,693.197815 376.759949,686.232300 
z"/>
<path fill="url(gradientFill)" opacity="1.000000" stroke="none" 
	d="
M313.000000,604.000000 
	C374.829468,604.000000 436.158905,604.009033 497.488342,603.968384 
	C500.068787,603.966614 502.791107,602.902405 505.178009,603.468567 
	C506.707733,603.831421 508.828857,606.282471 508.826447,607.794556 
	C508.808136,619.363342 508.099945,630.931702 508.118225,642.499451 
	C508.125244,646.940735 506.816162,648.123901 502.448364,648.094360 
	C474.951355,647.908142 447.451813,648.122803 419.954376,647.970764 
	C380.370392,647.751953 340.787842,647.247681 301.203796,647.057861 
	C290.787079,647.007874 280.365692,647.971619 269.948669,647.929321 
	C253.862732,647.864075 237.778809,647.325134 221.693619,647.007812 
	C218.895554,646.952637 216.095474,647.000000 213.618622,647.000000 
	C213.618622,632.612305 213.618622,618.591736 213.618622,604.000000 
	C246.977753,604.000000 279.738892,604.000000 313.000000,604.000000 
z"/>
<path fill="url(gradientFill)" opacity="1.000000" stroke="none" 
	d="
M471.998993,722.124634 
	C477.304230,703.280823 487.424561,687.752930 502.220581,675.899353 
	C510.208313,669.500000 519.054749,663.581482 529.836548,661.899475 
	C535.368225,661.036499 540.710693,658.769104 546.248413,658.195496 
	C550.891907,657.714539 555.856812,658.132141 560.391479,659.284912 
	C568.591553,661.369507 576.529053,664.463928 584.667175,666.823059 
	C591.089050,668.684753 597.533630,669.494019 603.192261,664.405334 
	C604.032104,663.650146 605.790222,662.927429 606.533875,663.316589 
	C607.370911,663.754517 607.894653,665.454102 607.944031,666.630554 
	C608.373840,676.874878 608.619324,687.126892 609.034851,697.371948 
	C609.133057,699.792358 609.986938,702.205994 609.905640,704.602844 
	C609.830994,706.802551 608.963989,708.975342 608.128174,712.501160 
	C602.346558,707.157288 597.954041,702.664307 593.114258,698.720032 
	C584.745728,691.899963 575.934326,685.706787 565.033752,683.506226 
	C552.623901,681.001038 541.383606,685.351074 534.117920,694.740356 
	C523.039856,709.056396 518.031006,725.495728 518.987732,743.673035 
	C519.395020,751.410156 518.636963,759.370239 520.204285,766.852905 
	C524.104126,785.471619 533.369324,800.920166 552.243591,807.461243 
	C564.364441,811.661804 576.207336,808.359375 586.650574,800.827393 
	C591.141907,797.588196 595.576477,794.270447 600.045044,790.999573 
	C603.735657,788.298157 606.861328,789.953247 609.833435,792.351990 
	C615.025940,796.542725 617.080750,800.826538 614.153809,805.027344 
	C610.551941,810.196777 606.016418,814.998718 601.039429,818.874329 
	C585.391907,831.059387 567.016602,834.859985 547.804077,832.800232 
	C528.481628,830.728699 511.217773,823.337158 496.745422,809.578613 
	C484.195892,797.648071 475.640900,783.640503 471.566406,766.992310 
	C468.602844,754.883423 467.023102,742.591492 470.859741,730.235962 
	C471.618317,727.793030 471.636719,725.120361 471.998993,722.124634 
z"/>
<path fill="url(gradientFill)" opacity="1.000000" stroke="none" 
	d="
M529.991699,337.999542 
	C523.688721,344.205658 517.577576,349.998474 508.457703,351.049164 
	C504.793701,351.471283 501.159668,352.247559 497.560303,353.073151 
	C496.623810,353.287964 495.487793,354.115997 495.090912,354.965057 
	C491.978363,361.623322 488.918549,368.311432 486.084473,375.091492 
	C485.244629,377.100708 484.206665,378.739166 488.168579,380.278564 
	C502.289825,385.765411 515.885315,392.594116 529.948303,398.247162 
	C536.543640,400.898315 537.736389,407.451630 541.856323,411.810425 
	C542.168823,412.140991 541.625122,413.814117 541.022888,414.324371 
	C540.435364,414.822113 539.180359,414.922150 538.358398,414.693512 
	C529.324036,412.181030 520.336426,409.500244 511.297241,407.005707 
	C502.486664,404.574310 493.610779,402.379486 484.799988,399.948792 
	C472.348297,396.513580 459.930084,392.957001 446.699585,389.227356 
	C448.039307,384.205566 449.475800,378.861328 450.890198,373.511200 
	C453.919403,362.052734 457.003479,350.607697 459.858704,339.105927 
	C460.149506,337.934387 459.357971,336.165985 458.527344,335.093994 
	C448.011597,321.522400 446.099274,306.566284 452.157898,290.833160 
	C454.282257,285.316559 451.409027,281.780212 449.291595,277.948029 
	C445.263489,270.657776 440.558411,263.744324 436.278687,256.588165 
	C435.410828,255.137024 435.181000,253.304352 434.440857,250.963928 
	C444.027771,251.802933 451.978485,248.485657 459.113434,243.826324 
	C464.984314,239.992477 470.165466,234.996628 475.237671,230.087357 
	C478.052063,227.363403 479.237885,227.195099 481.043488,230.505035 
	C486.027069,239.640625 491.104767,248.729630 496.407898,257.681458 
	C497.296448,259.181335 499.419586,260.689392 501.105011,260.856812 
	C511.483063,261.887451 520.264221,266.361572 527.601318,273.378113 
	C531.301575,276.916687 535.039246,281.209381 536.699768,285.891693 
	C538.895935,292.084351 543.729736,293.534149 548.582764,294.876434 
	C561.883301,298.555084 575.355103,301.611786 588.693237,305.162231 
	C589.556824,305.392151 590.609619,307.915894 590.315125,309.043671 
	C585.539734,327.326477 580.525085,345.546539 575.640625,363.801178 
	C572.659180,374.943359 569.854492,386.133026 566.838013,397.265503 
	C566.451172,398.693207 565.265381,399.904480 564.197083,401.622223 
	C561.629822,397.218170 559.313354,393.442749 557.238098,389.539154 
	C556.744507,388.610840 556.878784,387.230072 557.027527,386.097198 
	C558.588806,374.204926 560.270996,362.328308 561.787598,350.430481 
	C562.366699,345.886871 562.829590,341.300995 562.851501,336.732025 
	C562.857422,335.501129 561.178101,333.326416 560.060303,333.177582 
	C552.772583,332.207184 545.427673,331.662445 538.099060,331.004456 
	C533.047729,330.550873 532.785156,335.459717 529.991699,337.999542 
M505.431976,332.082581 
	C517.251709,326.963104 522.501770,318.446442 522.265442,305.112366 
	C521.992493,289.715057 508.431519,279.573975 495.934235,279.167450 
	C488.306305,278.919373 481.517120,282.278809 475.822571,287.632782 
	C463.186829,299.512756 465.822266,321.990082 482.231201,331.045441 
	C489.586945,335.104797 497.082214,335.478302 505.431976,332.082581 
z"/>
<path fill="url(gradientFill)" opacity="1.000000" stroke="none" 
	d="
M425.985535,459.140686 
	C430.131805,468.012939 432.884735,476.799377 433.058533,486.378845 
	C433.252472,497.067017 432.481079,507.421234 428.249084,517.504883 
	C422.495758,531.213318 413.740509,542.184143 401.682068,550.848145 
	C393.941559,556.409729 385.618225,560.711670 376.330444,562.039124 
	C363.352722,563.893982 350.371643,564.003601 337.456238,560.012573 
	C326.354767,556.581970 317.092285,550.120300 309.351196,542.325378 
	C300.227661,533.138428 292.774567,522.195496 290.971558,508.579559 
	C290.101868,502.011932 287.805969,495.400604 288.210785,488.937836 
	C289.782959,463.839050 300.409393,443.685303 322.184235,429.881836 
	C329.778412,425.067719 337.707306,420.925842 346.475952,420.182098 
	C356.833679,419.303589 367.518951,419.063141 377.740906,420.635162 
	C390.141602,422.542267 401.075287,429.193695 409.999054,437.875183 
	C416.211792,443.919250 420.707611,451.728210 425.985535,459.140686 
M330.576050,462.051819 
	C329.394836,463.281555 328.007782,464.371796 327.064758,465.763031 
	C319.067169,477.561676 315.960571,490.095673 320.543365,504.182983 
	C324.816010,517.316833 341.842163,534.287048 360.105988,533.349060 
	C376.035553,532.530945 388.034393,526.545532 396.569672,513.698486 
	C402.369781,504.968323 403.664673,495.121918 402.170013,484.520294 
	C400.432617,472.197357 394.077087,463.072906 384.449646,456.265808 
	C374.538116,449.257812 363.165710,447.023071 351.207550,450.056183 
	C343.479553,452.016357 336.252777,455.117310 330.576050,462.051819 
z"/>
<path fill="url(gradientFill)" opacity="1.000000" stroke="none" 
	d="
M226.986588,823.336060 
	C227.646591,827.659973 225.743729,829.032532 222.081879,829.021179 
	C206.084015,828.971680 190.085739,829.043335 174.088013,828.974915 
	C168.925613,828.952820 168.233902,827.234741 169.901184,822.227417 
	C173.115540,812.573914 176.188034,802.950867 176.101257,792.460388 
	C175.826950,759.300110 176.001450,726.136108 175.998871,692.973572 
	C175.998306,685.831116 175.181290,685.062988 168.224350,684.987854 
	C150.473404,684.796265 136.590317,692.095093 126.161697,706.353821 
	C125.161453,707.721375 123.391823,708.526184 121.979378,709.592285 
	C121.630539,709.277100 121.281693,708.961853 120.932846,708.646667 
	C121.960800,697.782104 122.525078,686.845703 124.193298,676.080322 
	C125.169731,669.779175 130.397552,666.080200 136.460907,665.149780 
	C144.534409,663.910950 152.756424,663.166260 160.922638,663.092224 
	C187.917068,662.847656 214.919220,662.742188 241.908981,663.172974 
	C249.070435,663.287231 256.223541,665.391174 263.333496,666.816162 
	C269.383057,668.028625 272.120178,672.881592 272.819550,678.138062 
	C274.158478,688.201294 274.542053,698.391602 275.322083,708.529175 
	C274.926331,708.844055 274.530579,709.158875 274.134827,709.473755 
	C272.836700,708.575562 271.204773,707.931946 270.294250,706.738098 
	C264.072662,698.581299 257.104614,691.065552 247.027100,688.177856 
	C239.165436,685.925110 230.854889,685.238892 221.801697,683.695862 
	C221.097839,690.235352 220.100510,695.332764 220.074036,700.435242 
	C219.921967,729.764160 220.048828,759.094421 219.976334,788.423950 
	C219.946671,800.423218 222.180817,811.910828 226.986588,823.336060 
z"/>
<path fill="url(gradientFill)" opacity="1.000000" stroke="none" 
	d="
M245.221588,273.719971 
	C240.992950,270.426239 237.011780,267.393066 231.944977,263.532776 
	C278.641602,239.847717 324.790283,216.440582 371.291534,192.854630 
	C371.976013,197.443604 372.558746,200.786331 372.962219,204.150558 
	C374.940399,220.646317 384.650848,232.161362 397.285004,241.701920 
	C400.461975,244.100952 400.956268,245.166367 397.056824,247.606873 
	C382.455841,256.745056 368.102539,266.280853 353.700928,275.735321 
	C338.046448,286.012329 322.464996,296.400513 306.806488,306.671295 
	C296.879700,313.182556 286.849335,319.535889 276.917908,326.040253 
	C275.168518,327.185974 273.678528,328.727783 270.754852,331.195862 
	C269.464325,308.284058 262.345337,288.823975 245.221588,273.719971 
z"/>
<path fill="url(gradientFill)" opacity="1.000000" stroke="none" 
	d="
M348.071655,410.000031 
	C329.849426,413.798492 313.790344,421.075409 301.152527,434.470428 
	C291.700439,444.488861 284.956177,456.182068 281.968872,469.820862 
	C281.109802,473.742889 280.114197,477.635040 279.055115,482.068512 
	C278.324402,481.789642 276.739075,481.684875 276.041748,480.843781 
	C264.806183,467.292480 253.780777,453.566406 242.502869,440.050873 
	C234.292877,430.212006 225.783249,420.623138 217.407394,410.922668 
	C215.092850,408.242065 212.459686,405.765106 210.571075,402.811981 
	C209.195419,400.660950 209.553146,398.568146 212.994293,397.947693 
	C233.391937,394.269928 248.419586,382.790680 259.116669,365.395264 
	C263.480255,358.299316 267.317505,350.948029 268.123535,342.337646 
	C268.397675,339.409210 270.540771,339.293213 272.721771,341.194733 
	C277.440765,345.308990 282.168427,349.415405 286.971130,353.431000 
	C298.458282,363.035645 309.972076,372.608643 321.510956,382.151062 
	C331.059143,390.047272 340.683197,397.852051 350.198639,405.787292 
	C351.187500,406.612030 351.666412,408.048248 352.707733,409.725464 
	C350.744415,409.853607 349.622955,409.926788 348.071655,410.000031 
z"/>
<path fill="url(gradientFill)" opacity="1.000000" stroke="none" 
	d="
M212.385010,266.145630 
	C219.271500,269.403534 226.141602,271.915100 232.136032,275.783539 
	C248.563492,286.384827 257.678680,301.743042 260.029938,321.206146 
	C262.700653,343.314148 254.389389,361.351746 238.475922,375.689087 
	C227.101196,385.937286 213.123138,390.235199 197.334244,390.240753 
	C177.048050,390.247925 161.213135,381.936279 148.743866,367.024780 
	C134.786636,350.333923 131.239349,330.867004 137.545349,310.070770 
	C143.663986,289.892334 156.728241,275.945435 176.758163,268.608490 
	C188.319153,264.373749 200.066269,264.605560 212.385010,266.145630 
M231.000504,345.480103 
	C235.758255,336.411255 236.913177,326.653351 233.790848,317.150726 
	C230.379456,306.768341 223.681793,298.425140 213.176971,294.024780 
	C206.950119,291.416412 200.656723,289.347473 193.588638,290.679108 
	C184.380432,292.414001 176.305481,295.690491 169.861252,302.929535 
	C164.451904,309.006073 161.036606,315.861420 160.090057,323.754181 
	C158.991302,332.915924 162.037109,340.918976 166.800568,348.937103 
	C176.669907,365.549683 201.010651,369.865631 215.927673,360.312531 
	C221.607925,356.674774 225.991837,351.012817 231.000504,345.480103 
z"/>
<path fill="url(gradientFill)" opacity="1.000000" stroke="none" 
	d="
M324.180023,564.987183 
	C338.467499,572.078125 353.409393,574.338562 368.651398,572.846924 
	C387.713867,570.981445 404.646149,563.658630 418.067230,549.515320 
	C422.022980,545.346680 425.738831,540.893311 429.092590,536.230896 
	C431.248291,533.234070 432.361176,533.328430 433.858124,536.461853 
	C438.209076,545.569275 442.611328,554.652100 446.972809,563.754456 
	C451.656555,573.529480 456.316803,583.315674 461.315308,593.783875 
	C459.724426,594.222229 458.313446,594.950195 456.901947,594.951233 
	C391.961487,594.999390 327.020996,594.984131 262.080505,594.969666 
	C261.924255,594.969604 261.768036,594.873169 260.268463,594.379517 
	C269.478699,573.892822 279.687286,554.042358 289.820221,532.428894 
	C298.703033,546.895020 310.098022,557.205444 324.180023,564.987183 
z"/>
<path fill="url(gradientFill)" opacity="1.000000" stroke="none" 
	d="
M384.710358,175.708130 
	C389.554260,163.035889 398.279724,154.563202 410.011719,149.041443 
	C421.062408,143.840317 432.481567,143.530624 444.090790,146.978775 
	C455.580627,150.391464 464.401489,157.228348 471.076508,167.204895 
	C477.490540,176.791336 479.818695,187.330597 478.910553,198.547211 
	C478.112946,208.398834 473.783752,217.089600 467.687164,224.703583 
	C460.823090,233.276047 452.003784,239.666580 441.065094,241.236511 
	C430.013824,242.822617 418.953461,243.335510 408.269806,237.303162 
	C399.871918,232.561432 392.318390,226.785507 387.818665,218.846298 
	C381.462799,207.632202 378.540375,195.046783 382.534546,181.927094 
	C383.136932,179.948486 383.818817,177.994110 384.710358,175.708130 
M453.030640,173.548599 
	C448.971985,170.678497 445.286133,166.821609 440.785522,165.121307 
	C426.664795,159.786499 412.682312,165.221375 403.929474,178.097015 
	C398.693085,185.799835 397.326508,194.468826 400.469513,202.494507 
	C406.221924,217.183334 416.879181,225.365173 434.160522,224.043686 
	C442.788940,223.383881 456.601562,212.566132 459.036469,204.515366 
	C462.410950,193.357910 460.667664,183.256531 453.030640,173.548599 
z"/>
<path fill="#C5C5C5" opacity="1.000000" stroke="none" 
	d="
M370.565613,815.928589 
	C376.205078,815.975647 381.631592,816.004639 387.578918,816.442749 
	C388.394135,817.969360 388.814545,819.070557 388.961731,820.207092 
	C389.682861,825.776245 392.303070,827.834229 398.918915,828.004333 
	C411.192505,828.320007 423.464325,828.827087 435.739136,828.906067 
	C440.126495,828.934265 444.520355,827.954102 449.462738,827.368958 
	C446.660583,823.126282 444.341034,819.614380 442.021484,816.102478 
	C445.440643,816.086792 448.859741,816.071167 452.748047,816.001709 
	C453.217194,815.947998 453.636017,815.916687 453.780579,816.426819 
	C454.275604,826.527771 454.726135,836.116333 454.942444,845.710205 
	C455.094604,852.458557 453.519226,853.956665 446.870941,853.960938 
	C423.937622,853.975647 401.003204,854.072327 378.072388,853.830811 
	C375.053680,853.799011 372.053711,851.986755 369.028717,850.530640 
	C368.991730,839.299988 368.971100,828.537720 368.950470,817.775391 
	C368.950470,817.775391 368.910736,817.350037 369.248657,817.144348 
	C369.927124,816.751953 370.053345,816.469360 369.965210,816.090881 
	C369.965210,816.090881 370.352661,815.910461 370.565613,815.928589 
z"/>
<path fill="#C6C6C6" opacity="1.000000" stroke="none" 
	d="
M47.180649,433.024109 
	C47.086575,438.104004 46.992496,443.183868 46.972198,448.740051 
	C47.081154,449.554443 46.951355,449.808197 45.959599,449.938141 
	C40.522339,449.952667 35.782055,450.006622 30.571449,450.028748 
	C23.821800,449.984070 17.542469,449.970734 11.263137,449.958527 
	C7.158037,449.950531 4.815079,448.471649 4.944575,443.789062 
	C5.200307,434.541840 5.086397,425.284363 5.508159,416.020813 
	C7.617299,416.519257 9.412871,416.864716 11.058870,417.562836 
	C23.116297,422.676910 35.143738,427.861664 47.180649,433.024109 
z"/>
<path fill="#E3E3E3" opacity="1.000000" stroke="none" 
	d="
M369.045074,850.999023 
	C372.053711,851.986755 375.053680,853.799011 378.072388,853.830811 
	C401.003204,854.072327 423.937622,853.975647 446.870941,853.960938 
	C453.519226,853.956665 455.094604,852.458557 454.942444,845.710205 
	C454.726135,836.116333 454.275604,826.527771 453.971008,816.515259 
	C454.995422,818.523499 456.708313,820.920898 456.817780,823.389404 
	C457.178436,831.522888 457.008698,839.682495 456.943939,847.831360 
	C456.902618,853.031677 453.967560,855.949280 448.801483,855.955872 
	C424.684937,855.986633 400.568237,856.013000 376.451904,855.936768 
	C373.086304,855.926147 369.560150,855.660339 368.307831,851.359985 
	C368.604431,850.988220 369.045074,850.999023 369.045074,850.999023 
z"/>
<path fill="#E7E7E7" opacity="1.000000" stroke="none" 
	d="
M5.125335,416.031128 
	C5.086397,425.284363 5.200307,434.541840 4.944575,443.789062 
	C4.815079,448.471649 7.158037,449.950531 11.263137,449.958527 
	C17.542469,449.970734 23.821800,449.984070 30.557934,450.319122 
	C31.016857,451.030029 31.018980,451.418762 31.021103,451.807495 
	C23.900137,451.873810 16.775276,452.108368 9.659658,451.943695 
	C5.354637,451.844055 3.022196,449.392548 3.042833,444.867920 
	C3.086676,435.255219 3.035132,425.642029 2.993469,415.567993 
	C3.416358,414.748688 3.868468,414.390472 4.659679,414.334473 
	C5.040966,415.101471 5.083150,415.566315 5.125335,416.031128 
z"/>
<path fill="url(gradientFill)" opacity="1.000000" stroke="none" 
	d="
M369.028717,850.530640 
	C369.045074,850.999023 368.604431,850.988220 368.384094,850.983582 
	C368.184052,840.083923 368.204376,829.188904 368.587585,818.034668 
	C368.971100,828.537720 368.991730,839.299988 369.028717,850.530640 
z"/>
<path fill="url(gradientFill)" opacity="1.000000" stroke="none" 
	d="
M31.478123,451.875092 
	C31.018980,451.418762 31.016857,451.030029 31.028252,450.350922 
	C35.782055,450.006622 40.522339,449.952667 45.737686,449.973877 
	C41.453548,450.680237 36.694344,451.311462 31.478123,451.875092 
z"/>
<path fill="url(gradientFill)" opacity="1.000000" stroke="none" 
	d="
M369.702911,816.079163 
	C370.053345,816.469360 369.927124,816.751953 369.338745,816.950623 
	C369.207489,816.664185 369.324036,816.365845 369.702911,816.079163 
z"/>
<path fill="#CDCDCD" opacity="1.000000" stroke="none" 
	d="
M5.508159,416.020813 
	C5.083150,415.566315 5.040966,415.101471 4.958855,414.288086 
	C6.786718,412.960114 8.632858,411.185333 10.525903,411.133789 
	C20.786234,410.854523 31.058630,411.058777 41.325878,410.974976 
	C45.866539,410.937927 48.128860,412.910950 48.006241,417.525421 
	C47.874546,422.481110 47.806740,427.438446 47.445854,432.709595 
	C35.143738,427.861664 23.116297,422.676910 11.058870,417.562836 
	C9.412871,416.864716 7.617299,416.519257 5.508159,416.020813 
z"/>
<path fill="#000000" opacity="1.000000" stroke="none" 
	d="
M377.016846,686.534241 
	C384.000397,693.197815 387.050537,700.939941 387.108032,710.260864 
	C387.157928,718.355530 386.888428,726.150635 382.331879,733.244812 
	C379.262085,738.024170 375.661407,741.484314 369.419373,741.048950 
	C365.614563,740.783569 361.773865,740.916565 357.953400,741.021484 
	C353.388092,741.146851 351.128571,738.553406 351.074310,734.473083 
	C350.884308,720.179688 350.933197,705.881714 351.039032,691.586609 
	C351.073364,686.954407 353.380371,684.859924 358.157654,685.042358 
	C364.364502,685.279480 370.559723,685.821533 377.016846,686.534241 
z"/>
<path fill="#CDCDCD" opacity="1.000000" stroke="none" 
	d="
M441.597748,816.053589 
	C444.341034,819.614380 446.660583,823.126282 449.462738,827.368958 
	C444.520355,827.954102 440.126495,828.934265 435.739136,828.906067 
	C423.464325,828.827087 411.192505,828.320007 398.918915,828.004333 
	C392.303070,827.834229 389.682861,825.776245 388.961731,820.207092 
	C388.814545,819.070557 388.394135,817.969360 388.045746,816.468933 
	C389.732330,815.723999 391.470917,815.059082 393.213684,815.048096 
	C406.933838,814.961609 420.655121,814.954590 434.375214,815.045105 
	C436.643494,815.059998 438.907837,815.669861 441.597748,816.053589 
z"/>
<path fill="#000000" opacity="1.000000" stroke="none" 
	d="
M505.149475,332.372437 
	C497.082214,335.478302 489.586945,335.104797 482.231201,331.045441 
	C465.822266,321.990082 463.186829,299.512756 475.822571,287.632782 
	C481.517120,282.278809 488.306305,278.919373 495.934235,279.167450 
	C508.431519,279.573975 521.992493,289.715057 522.265442,305.112366 
	C522.501770,318.446442 517.251709,326.963104 505.149475,332.372437 
M480.355316,317.900116 
	C485.475159,323.257721 491.029083,327.415558 499.142761,325.419769 
	C507.281036,323.417877 511.587036,318.220062 513.509033,310.146667 
	C516.669067,296.872620 503.255157,286.511292 493.036591,288.093628 
	C477.357635,290.521484 473.622589,306.850433 480.355316,317.900116 
z"/>
<path fill="#000000" opacity="1.000000" stroke="none" 
	d="
M330.971191,462.005707 
	C336.252777,455.117310 343.479553,452.016357 351.207550,450.056183 
	C363.165710,447.023071 374.538116,449.257812 384.449646,456.265808 
	C394.077087,463.072906 400.432617,472.197357 402.170013,484.520294 
	C403.664673,495.121918 402.369781,504.968323 396.569672,513.698486 
	C388.034393,526.545532 376.035553,532.530945 360.105988,533.349060 
	C341.842163,534.287048 324.816010,517.316833 320.543365,504.182983 
	C315.960571,490.095673 319.067169,477.561676 327.064758,465.763031 
	C328.007782,464.371796 329.394836,463.281555 330.971191,462.005707 
M338.023895,515.537476 
	C346.684631,523.897095 357.576416,526.091675 368.492859,523.527893 
	C383.021851,520.115662 393.606293,508.231079 393.875946,492.119781 
	C394.119720,477.558014 387.371002,467.204865 373.763855,460.825165 
	C360.223816,454.476898 341.091003,459.815002 333.932953,471.935059 
	C330.380707,477.949799 327.640594,485.353882 327.447540,492.211456 
	C327.208923,500.688263 331.187866,508.704224 338.023895,515.537476 
z"/>
<path fill="#000000" opacity="1.000000" stroke="none" 
	d="
M230.983521,345.876740 
	C225.991837,351.012817 221.607925,356.674774 215.927673,360.312531 
	C201.010651,369.865631 176.669907,365.549683 166.800568,348.937103 
	C162.037109,340.918976 158.991302,332.915924 160.090057,323.754181 
	C161.036606,315.861420 164.451904,309.006073 169.861252,302.929535 
	C176.305481,295.690491 184.380432,292.414001 193.588638,290.679108 
	C200.656723,289.347473 206.950119,291.416412 213.176971,294.024780 
	C223.681793,298.425140 230.379456,306.768341 233.790848,317.150726 
	C236.913177,326.653351 235.758255,336.411255 230.983521,345.876740 
M196.571304,356.000000 
	C204.591995,356.750519 211.220703,353.848694 217.125854,348.563416 
	C228.738464,338.169830 229.692871,317.815155 215.940628,306.471161 
	C204.105881,296.708893 191.106064,296.595276 180.265030,305.496277 
	C170.656326,313.385498 166.153809,323.425171 170.831161,336.529480 
	C174.879608,347.871826 184.219360,355.992188 196.571304,356.000000 
z"/>
<path fill="#000000" opacity="1.000000" stroke="none" 
	d="
M453.300903,173.797333 
	C460.667664,183.256531 462.410950,193.357910 459.036469,204.515366 
	C456.601562,212.566132 442.788940,223.383881 434.160522,224.043686 
	C416.879181,225.365173 406.221924,217.183334 400.469513,202.494507 
	C397.326508,194.468826 398.693085,185.799835 403.929474,178.097015 
	C412.682312,165.221375 426.664795,159.786499 440.785522,165.121307 
	C445.286133,166.821609 448.971985,170.678497 453.300903,173.797333 
M415.940735,209.421646 
	C418.836884,211.000977 421.569183,213.127579 424.661041,214.053040 
	C432.686493,216.455185 440.412201,215.439285 445.787720,208.507980 
	C451.107635,201.648392 454.559357,194.210938 450.072052,185.028107 
	C442.244324,169.009430 422.602356,168.585724 413.670624,178.946075 
	C407.157806,186.500656 404.735413,199.685822 415.940735,209.421646 
z"/>
<path fill="url(gradientFill)" opacity="1.000000" stroke="none" 
	d="
M480.111755,317.606079 
	C473.622589,306.850433 477.357635,290.521484 493.036591,288.093628 
	C503.255157,286.511292 516.669067,296.872620 513.509033,310.146667 
	C511.587036,318.220062 507.281036,323.417877 499.142761,325.419769 
	C491.029083,327.415558 485.475159,323.257721 480.111755,317.606079 
z"/>
<path fill="url(gradientFill)" opacity="1.000000" stroke="none" 
	d="
M337.766785,515.271973 
	C331.187866,508.704224 327.208923,500.688263 327.447540,492.211456 
	C327.640594,485.353882 330.380707,477.949799 333.932953,471.935059 
	C341.091003,459.815002 360.223816,454.476898 373.763855,460.825165 
	C387.371002,467.204865 394.119720,477.558014 393.875946,492.119781 
	C393.606293,508.231079 383.021851,520.115662 368.492859,523.527893 
	C357.576416,526.091675 346.684631,523.897095 337.766785,515.271973 
z"/>
<path fill="url(gradientFill)" opacity="1.000000" stroke="none" 
	d="
M196.105072,356.000000 
	C184.219360,355.992188 174.879608,347.871826 170.831161,336.529480 
	C166.153809,323.425171 170.656326,313.385498 180.265030,305.496277 
	C191.106064,296.595276 204.105881,296.708893 215.940628,306.471161 
	C229.692871,317.815155 228.738464,338.169830 217.125854,348.563416 
	C211.220703,353.848694 204.591995,356.750519 196.105072,356.000000 
z"/>
<path fill="url(gradientFill)" opacity="1.000000" stroke="none" 
	d="
M415.619995,209.224854 
	C404.735413,199.685822 407.157806,186.500656 413.670624,178.946075 
	C422.602356,168.585724 442.244324,169.009430 450.072052,185.028107 
	C454.559357,194.210938 451.107635,201.648392 445.787720,208.507980 
	C440.412201,215.439285 432.686493,216.455185 424.661041,214.053040 
	C421.569183,213.127579 418.836884,211.000977 415.619995,209.224854 
z"/>
</svg>